nColumns=19
nRows=51
DataType=double
version=3
OpenSimVersion=4.1
endheader
time	ground_force_calcn_r_vx	ground_force_calcn_r_vy	ground_force_calcn_r_vz	ground_force_calcn_r_px	ground_force_calcn_r_py	ground_force_calcn_r_pz	ground_force_calcn_r_mx	ground_force_calcn_r_my	ground_force_calcn_r_mz	ground_force_calcn_l_vx	ground_force_calcn_l_vy	ground_force_calcn_l_vz	ground_force_calcn_l_px	ground_force_calcn_l_py	ground_force_calcn_l_pz	ground_force_calcn_l_mx	ground_force_calcn_l_my	ground_force_calcn_l_mz
5.92	-2.27362	340.307	-37.7698	-0.262117	0	-0.42748	0.0259304	-3.88116	0.43076	-5.72536	283.742	31.9526	-0.19468	0	-0.841878	-0.0522671	2.59029	0.291697
5.93	-1.78169	337.561	-37.0969	-0.263027	0	-0.427999	0.0202292	-3.83265	0.421196	-5.63448	281.647	31.7468	-0.195351	0	-0.841603	-0.0512111	2.55985	0.288543
5.94	-1.27654	335.189	-36.4568	-0.26395	0	-0.428516	0.0144266	-3.78806	0.412009	-5.5196	280.122	31.6009	-0.196117	0	-0.841316	-0.0499721	2.5361	0.286101
5.95	-0.764585	333.166	-35.8616	-0.264874	0	-0.429024	0.00860118	-3.74794	0.403424	-5.38305	279.132	31.5144	-0.196965	0	-0.841023	-0.0485804	2.51908	0.284408
5.96	-0.254026	331.47	-35.3216	-0.265785	0	-0.429514	0.00284536	-3.71282	0.39564	-5.22777	278.638	31.4862	-0.197881	0	-0.840732	-0.0470679	2.5087	0.283484
5.97	0.246092	330.08	-34.8443	-0.266673	0	-0.429977	-0.00274597	-3.68313	0.388803	-5.05678	278.596	31.5145	-0.19885	0	-0.840448	-0.0454621	2.50467	0.283326
5.98	0.726613	328.975	-34.4343	-0.267528	0	-0.430409	-0.0080821	-3.65918	0.383012	-4.87328	278.958	31.5969	-0.199859	0	-0.840179	-0.0437878	2.50652	0.283906
5.99	1.17916	328.132	-34.0934	-0.268338	0	-0.4308	-0.0130845	-3.64113	0.378318	-4.68127	279.679	31.7303	-0.20089	0	-0.839929	-0.0420753	2.51376	0.285192
6	1.59692	327.533	-33.8197	-0.269099	0	-0.431151	-0.0176931	-3.62892	0.374708	-4.4857	280.71	31.9113	-0.201933	0	-0.839704	-0.040364	2.52593	0.28715
6.01	1.97419	327.159	-33.6089	-0.269806	0	-0.431459	-0.0218573	-3.62215	0.372102	-4.29214	282.005	32.136	-0.202974	0	-0.839505	-0.0386986	2.5426	0.289743
6.02	2.30577	326.999	-33.4547	-0.270455	0	-0.431724	-0.0255265	-3.62012	0.370368	-4.10587	283.518	32.3991	-0.204002	0	-0.839337	-0.0371226	2.56339	0.292932
6.03	2.58735	327.048	-33.3504	-0.271048	0	-0.431949	-0.028654	-3.62194	0.369344	-3.93104	285.203	32.6948	-0.205009	0	-0.839197	-0.0356702	2.58793	0.296672
6.04	2.81545	327.307	-33.2891	-0.271584	0	-0.432138	-0.031196	-3.62665	0.368852	-3.76993	287.013	33.0154	-0.205988	0	-0.839083	-0.0343601	2.61591	0.30091
6.05	2.98667	327.778	-33.2636	-0.272065	0	-0.432296	-0.0331053	-3.63321	0.368706	-3.62306	288.899	33.3517	-0.206936	0	-0.838993	-0.033195	2.64694	0.305573
6.06	3.09854	328.464	-33.2664	-0.272494	0	-0.432433	-0.0343427	-3.64054	0.368709	-3.48854	290.815	33.6939	-0.207851	0	-0.838922	-0.032156	2.68062	0.310577
6.07	3.15073	329.365	-33.2892	-0.272878	0	-0.432554	-0.0348935	-3.64762	0.368669	-3.36194	292.714	34.031	-0.208734	0	-0.838864	-0.031201	2.71657	0.315829
6.08	3.14461	330.471	-33.324	-0.27322	0	-0.432664	-0.0347644	-3.65344	0.368406	-3.23637	294.551	34.3514	-0.209584	0	-0.838816	-0.0302631	2.75433	0.321218
6.09	3.08257	331.762	-33.3631	-0.273526	0	-0.432772	-0.0339797	-3.65708	0.367767	-3.10303	296.287	34.6436	-0.210401	0	-0.838774	-0.0292546	2.79332	0.32661
6.1	2.96907	333.203	-33.3989	-0.273804	0	-0.43288	-0.0325934	-3.65779	0.36664	-2.95273	297.893	34.897	-0.211185	0	-0.838732	-0.0280803	2.83295	0.331869
6.11	2.81247	334.75	-33.4235	-0.274059	0	-0.432996	-0.0307088	-3.65507	0.364945	-2.77752	299.353	35.103	-0.211938	0	-0.838686	-0.0266547	2.87277	0.33687
6.12	2.62465	336.351	-33.4299	-0.274295	0	-0.433117	-0.0284723	-3.64874	0.362648	-2.57241	300.664	35.2554	-0.212664	0	-0.838631	-0.0249184	2.91247	0.341512
6.13	2.41902	337.958	-33.413	-0.274518	0	-0.433248	-0.0260464	-3.63891	0.35977	-2.33596	301.831	35.3501	-0.213364	0	-0.838567	-0.0228442	2.95171	0.345701
6.14	2.20887	339.529	-33.3703	-0.274732	0	-0.433385	-0.0235897	-3.62601	0.356378	-2.07047	302.869	35.3854	-0.214042	0	-0.838491	-0.0204409	2.99009	0.349345
6.15	2.0063	341.035	-33.3018	-0.274937	0	-0.433527	-0.021242	-3.61075	0.352587	-1.78097	303.792	35.3614	-0.214702	0	-0.838402	-0.017747	3.02723	0.35237
6.16	1.82081	342.466	-33.2111	-0.27514	0	-0.433671	-0.0191088	-3.59408	0.34854	-1.47431	304.62	35.2806	-0.215342	0	-0.838298	-0.0148233	3.06276	0.354724
6.17	1.65878	343.834	-33.1044	-0.275339	0	-0.433816	-0.0172576	-3.57717	0.344411	-1.15879	305.376	35.1472	-0.215963	0	-0.838178	-0.0117492	3.09627	0.356364
6.18	1.5234	345.165	-32.9911	-0.275538	0	-0.433957	-0.0157176	-3.56121	0.340383	-0.843791	306.089	34.9685	-0.216566	0	-0.838044	-0.00862103	3.12731	0.357273
6.19	1.41549	346.497	-32.8819	-0.275735	0	-0.434092	-0.0144914	-3.54733	0.336634	-0.539355	306.792	34.7548	-0.217148	0	-0.837897	-0.00554734	3.15539	0.357458
6.2	1.33519	347.873	-32.7886	-0.275934	0	-0.43422	-0.0135737	-3.53651	0.333332	-0.255044	307.527	34.5198	-0.217707	0	-0.83774	-0.00263729	3.18	0.356954
6.21	1.28273	349.334	-32.7237	-0.276133	0	-0.434338	-0.0129596	-3.52937	0.330613	0.000669679	308.343	34.2804	-0.218244	0	-0.837575	6.95143e-06	3.20068	0.355839
6.22	1.25954	350.929	-32.7003	-0.276337	0	-0.434445	-0.0126565	-3.52633	0.32859	0.220888	309.292	34.0558	-0.218758	0	-0.837408	0.00229747	3.21697	0.354217
6.23	1.26926	352.714	-32.7331	-0.276545	0	-0.434538	-0.0126945	-3.52767	0.32738	0.400855	310.432	33.8677	-0.219249	0	-0.837241	0.00416892	3.22852	0.352227
6.24	1.31718	354.756	-32.84	-0.276759	0	-0.434618	-0.0131196	-3.53351	0.3271	0.538318	311.821	33.7385	-0.219721	0	-0.837079	0.00558496	3.23509	0.350032
6.25	1.40901	357.126	-33.0423	-0.276982	0	-0.434681	-0.0139817	-3.54378	0.327879	0.632823	313.521	33.6911	-0.220175	0	-0.836927	0.00653269	3.23651	0.347796
6.26	1.55061	359.898	-33.3634	-0.277211	0	-0.434725	-0.0153301	-3.55814	0.329848	0.684772	315.59	33.7476	-0.220615	0	-0.836785	0.00701395	3.2325	0.345668
6.27	1.74798	363.145	-33.8284	-0.277449	0	-0.43475	-0.0172136	-3.57613	0.333131	0.695515	318.076	33.9288	-0.221045	0	-0.836661	0.00704705	3.22279	0.343771
6.28	2.0067	366.938	-34.4618	-0.277695	0	-0.434752	-0.0196714	-3.59705	0.337824	0.668245	321.021	34.2538	-0.221465	0	-0.836554	0.00667592	3.20707	0.342203
6.29	2.33075	371.343	-35.287	-0.27795	0	-0.434728	-0.0227204	-3.6199	0.343982	0.608187	324.446	34.7396	-0.221881	0	-0.836471	0.00597033	3.18496	0.341024
6.3	2.72194	376.397	-36.3235	-0.278212	0	-0.434676	-0.0263473	-3.64338	0.351598	0.52204	328.362	35.4007	-0.222297	0	-0.836412	0.00501758	3.15606	0.340254
6.31	3.18074	382.107	-37.586	-0.278481	0	-0.434594	-0.0305147	-3.66578	0.360584	0.417523	332.761	36.2487	-0.222715	0	-0.836378	0.00391458	3.11988	0.339858
6.32	3.70724	388.444	-39.0827	-0.278755	0	-0.434481	-0.0351687	-3.68497	0.370757	0.303332	337.616	37.2914	-0.22314	0	-0.836368	0.00276354	3.07589	0.339748
6.33	4.30026	395.342	-40.8151	-0.279033	0	-0.434338	-0.0402315	-3.69866	0.38185	0.188696	342.883	38.5329	-0.223574	0	-0.83638	0.00166392	3.02354	0.339782
6.34	4.95573	402.7	-42.7783	-0.279314	0	-0.434169	-0.0455873	-3.7044	0.393514	0.0831371	348.497	39.9723	-0.22402	0	-0.836413	0.00070669	2.96233	0.339776
6.35	5.66638	410.389	-44.9597	-0.279597	0	-0.433975	-0.0510827	-3.69968	0.405314	-0.00343772	354.366	41.6038	-0.224481	0	-0.836464	-2.80536e-05	2.89182	0.339509
6.36	6.42297	418.256	-47.3386	-0.279883	0	-0.433761	-0.0565439	-3.68207	0.41674	-0.062022	360.378	43.4166	-0.224955	0	-0.83653	-0.000483905	2.81172	0.338743
6.37	7.21489	426.134	-49.8865	-0.280166	0	-0.433533	-0.0617872	-3.64935	0.427221	-0.0861328	366.404	45.3953	-0.225442	0	-0.836609	-0.000639842	2.72185	0.337221
6.38	8.02971	433.841	-52.5682	-0.280448	0	-0.433295	-0.0666238	-3.59965	0.436166	-0.0726589	372.307	47.5198	-0.225938	0	-0.836698	-0.000511745	2.6222	0.334687
6.39	8.85404	441.192	-55.3419	-0.280726	0	-0.433053	-0.0708744	-3.53163	0.442998	-0.0214862	377.941	49.765	-0.226438	0	-0.836794	-0.000142868	2.51304	0.330901
6.4	9.67469	448.001	-58.1611	-0.280997	0	-0.432815	-0.0743878	-3.44464	0.447196	0.0654491	383.157	52.1009	-0.226939	0	-0.836896	0.000409086	2.39491	0.325654
6.41	10.4791	454.097	-60.976	-0.281261	0	-0.432585	-0.0770496	-3.33884	0.448339	0.184141	387.807	54.4934	-0.227432	0	-0.836999	0.00107721	2.26864	0.318782
6.42	11.2556	459.326	-63.7349	-0.281517	0	-0.432372	-0.0787885	-3.21524	0.446139	0.328301	391.75	56.9044	-0.227911	0	-0.837105	0.00178954	2.13539	0.31018
